<?xml version="1.0" standalone="no"?>
<!DOCTYPE svg PUBLIC "-//W3C//DTD SVG 20010904//EN"
 "http://www.w3.org/TR/2001/REC-SVG-20010904/DTD/svg10.dtd">
<svg version="1.0" xmlns="http://www.w3.org/2000/svg"
 width="400.000000pt" height="400.000000pt" viewBox="0 0 400.000000 400.000000"
 preserveAspectRatio="xMidYMid meet">
<metadata>
Created by potrace 1.14, written by Peter Selinger 2001-2017
</metadata>
<g transform="translate(0.000000,400.000000) scale(0.100000,-0.100000)"
fill="#000000" stroke="none">
<path d="M1935 3311 c-45 -27 -62 -51 -114 -153 -26 -51 -52 -102 -58 -113 -6
-11 -22 -42 -35 -70 -14 -27 -30 -60 -36 -72 -7 -13 -16 -32 -22 -43 -5 -11
-14 -28 -20 -37 -5 -10 -20 -40 -33 -68 -13 -27 -28 -59 -34 -70 -6 -11 -23
-45 -38 -75 -15 -30 -63 -126 -106 -212 -44 -86 -79 -160 -79 -163 0 -4 -9
-20 -21 -36 -22 -31 -18 -34 27 -20 30 9 162 33 289 52 l70 10 27 52 c15 29
38 75 51 102 13 28 65 130 114 228 l90 178 138 -276 c99 -199 144 -279 159
-285 12 -4 53 -11 91 -15 39 -4 118 -17 178 -30 59 -12 107 -20 107 -17 0 3
-122 249 -270 548 -249 501 -274 545 -312 573 -50 37 -115 42 -163 12z"/>
<path d="M1660 1975 c-188 -29 -433 -92 -525 -135 -11 -5 -47 -20 -81 -34 -80
-33 -200 -95 -258 -134 -26 -18 -61 -39 -79 -49 -34 -17 -107 -71 -119 -88 -4
-5 -8 -27 -8 -47 0 -42 35 -78 77 -78 13 0 74 33 136 74 129 85 353 196 467
232 278 89 486 124 733 124 441 0 862 -126 1217 -365 107 -72 137 -79 175 -40
41 40 34 80 -22 132 -26 23 -51 43 -56 43 -4 0 -38 20 -75 44 -179 116 -368
198 -607 263 -211 57 -340 74 -595 78 -200 4 -242 2 -380 -20z"/>
<path d="M1280 1468 c-135 -62 -274 -135 -345 -181 l-80 -52 -92 -186 c-101
-203 -109 -233 -72 -298 52 -93 177 -115 251 -44 17 15 46 60 64 98 19 39 38
77 44 85 5 8 20 38 33 65 13 28 28 59 34 70 5 11 15 30 21 43 7 12 16 30 22
40 5 9 20 40 33 67 13 28 28 59 35 70 6 11 22 43 35 70 13 28 38 77 55 110 18
33 32 61 32 62 0 8 -30 0 -70 -19z"/>
<path d="M2674 1463 c8 -16 91 -181 184 -368 93 -187 174 -349 182 -361 32
-51 108 -79 176 -64 52 12 113 76 116 122 2 60 -3 89 -26 136 -13 26 -52 105
-87 176 l-64 130 -84 54 c-97 64 -179 109 -261 144 -19 8 -56 25 -83 36 -63
29 -71 28 -53 -5z"/>
</g>
</svg>
