<svg width="24" height="24" viewBox="0 0 24 24" fill="none" xmlns="http://www.w3.org/2000/svg">
<path fill-rule="evenodd" clip-rule="evenodd" d="M12.8944 5.55279C12.725 5.214 12.3788 5 12 5C11.6212 5 11.275 5.214 11.1056 5.55279L7.90016 11.9636C8.69566 11.758 9.51743 11.6123 10.3534 11.5293L12 8.23607L13.6466 11.5293C14.4826 11.6123 15.3044 11.758 16.0998 11.9636L12.8944 5.55279ZM17.0425 13.8489C16.2267 13.5472 15.3619 13.3189 14.4671 13.1703L15.0084 14.2529C15.9465 14.4699 16.8557 14.7877 17.7181 15.2001L17.0425 13.8489ZM18.8703 17.5044C17.952 16.8416 16.9348 16.3185 15.8568 15.9496L18.1056 20.4472C18.3526 20.9412 18.9532 21.1414 19.4472 20.8944C19.9412 20.6474 20.1414 20.0468 19.8944 19.5528L18.8703 17.5044ZM8.99158 14.2529L9.53289 13.1703C8.63811 13.3189 7.77336 13.5473 6.95753 13.8489L6.28193 15.2001C7.14427 14.7877 8.05352 14.4699 8.99158 14.2529ZM5.12974 17.5045C6.04804 16.8416 7.0652 16.3185 8.14325 15.9496L5.89443 20.4472C5.64744 20.9412 5.04677 21.1414 4.55279 20.8944C4.05881 20.6474 3.85859 20.0468 4.10558 19.5528L5.12974 17.5045Z" fill="#7896F0"/>
<path d="M4 16C6.199 14.361 9.049 13.454 12 13.454C14.951 13.454 17.801 14.361 20 16" stroke="#323C82" stroke-linecap="round" stroke-linejoin="round"/>
</svg>
